<?xml version="1.0" standalone="no"?>
<!DOCTYPE svg PUBLIC "-//W3C//DTD SVG 20010904//EN"
 "http://www.w3.org/TR/2001/REC-SVG-20010904/DTD/svg10.dtd">
<svg version="1.0" xmlns="http://www.w3.org/2000/svg"
 width="250.000000pt" height="250.000000pt" viewBox="0 0 250.000000 250.000000"
 preserveAspectRatio="xMidYMid meet">
<metadata>
Created by potrace 1.15, written by Peter Selinger 2001-2017
</metadata>
<g transform="translate(0.000000,250.000000) scale(0.100000,-0.100000)"
fill="#000000" stroke="none">
<path d="M0 1250 l0 -1250 1250 0 1250 0 0 1250 0 1250 -1250 0 -1250 0 0
-1250z m1519 671 c68 -92 169 -183 263 -238 l78 -45 -6 -157 c-10 -291 -37
-470 -85 -568 -33 -68 -107 -155 -164 -194 -19 -13 -34 -31 -32 -39 2 -16 -64
-79 -135 -128 -55 -38 -106 -52 -188 -52 -89 0 -135 15 -205 65 -65 47 -194
175 -157 156 12 -7 22 -9 22 -5 0 4 -22 41 -49 83 -54 85 -107 195 -139 287
-28 82 -62 285 -62 371 0 74 5 85 50 98 14 4 54 21 88 37 87 40 140 40 227 0
77 -36 85 -38 85 -17 0 9 -25 28 -60 44 l-60 29 45 11 c150 38 354 191 406
305 7 14 15 26 19 26 4 0 30 -31 59 -69z m-478 -1371 c76 -49 113 -60 209 -60
96 0 133 11 209 60 34 22 63 40 65 40 2 0 1 -49 -2 -110 l-5 -109 31 -29 c17
-16 57 -42 88 -58 42 -21 60 -37 67 -57 5 -16 7 -30 5 -32 -10 -10 -179 -47
-302 -65 -175 -25 -262 -25 -445 1 -157 22 -221 36 -221 47 0 22 43 71 76 86
83 38 143 80 155 108 8 19 9 58 4 123 -4 52 -4 95 -1 95 3 0 33 -18 67 -40z"/>
<path d="M830 1499 c0 -6 -15 -10 -32 -8 -61 4 -78 0 -72 -16 4 -10 0 -15 -12
-16 -17 0 -17 -1 1 -9 11 -4 29 -21 41 -37 12 -15 38 -37 58 -48 32 -17 38
-18 47 -5 9 13 10 12 5 -2 -5 -16 2 -18 57 -17 72 1 102 9 103 27 1 6 2 21 3
32 2 27 26 25 48 -5 13 -18 22 -22 33 -15 12 7 9 13 -13 31 -16 11 -26 24 -23
26 3 3 -11 14 -32 25 -74 38 -212 63 -212 37z"/>
<path d="M1542 1495 c-58 -16 -90 -35 -134 -78 -22 -23 -26 -32 -16 -38 9 -6
19 0 31 16 25 33 33 32 47 -10 12 -37 19 -42 36 -25 8 8 15 6 24 -5 15 -18 68
-20 125 -4 48 13 143 104 118 113 -8 3 -12 10 -9 15 3 5 0 9 -7 8 -57 -2 -107
5 -102 13 9 14 -50 11 -113 -5z"/>
<path d="M1070 881 c0 -3 12 -19 26 -35 54 -57 155 -82 221 -54 34 15 113 76
113 88 0 5 -37 7 -82 5 -46 -2 -90 -4 -98 -4 -8 0 -52 2 -97 4 -46 1 -83 0
-83 -4z"/>
</g>
</svg>
